P2
53 7
65535
64829 64829 18221 18221 64829 64829 51841 18221 18221 18221 39856 64829 64829 51841 18221 18221 18221 51841 64829 39856 18221 64829 64829 64829 51841 18221 64829 18221 18221 18221 51841 51841 18221 64829 64829 39856 18221 64829 64829 51841 18221 64829 51841 18221 18221 18221 51841 51841 18221 18221 18221 39856 64829 
64829 64829 18221 18221 64829 64829 51841 18221 64829 64829 18221 51841 51841 18221 51841 64829 51841 18221 64829 51841 18221 64829 64829 64829 51841 18221 18221 39856 64829 51841 64829 51841 18221 64829 64829 51841 18221 64829 64829 51841 18221 64829 18221 51841 64829 64829 64829 51841 18221 51841 64829 64829 64829 
64829 39856 39856 39856 39856 64829 51841 18221 64829 51841 18221 64829 39856 18221 64829 64829 64829 18221 39856 51841 18221 64829 64829 64829 51841 39856 39856 18221 51841 64829 64829 51841 18221 51841 64829 39856 39856 64829 64829 51841 18221 39856 18221 64829 64829 64829 64829 51841 18221 51841 64829 64829 64829 
64829 18221 64829 51841 18221 64829 39856 18221 18221 18221 18221 64829 39856 39856 64829 64829 64829 39856 39856 51841 18221 64829 64829 64829 51841 18221 64829 39856 18221 39856 64829 51841 18221 18221 18221 18221 18221 64829 64829 51841 18221 39856 39856 64829 64829 64829 64829 51841 18221 18221 18221 51841 64829 
51841 18221 18221 18221 18221 51841 51841 18221 64829 64829 18221 51841 39856 18221 64829 64829 64829 18221 39856 51841 18221 64829 64829 64829 51841 18221 64829 64829 51841 18221 39856 51841 18221 64829 64829 39856 18221 64829 64829 51841 18221 51841 18221 64829 64829 64829 64829 51841 18221 64829 64829 64829 64829 
39856 39856 64829 64829 39856 39856 51841 18221 64829 51841 18221 51841 64829 18221 51841 51841 51841 18221 64829 51841 18221 64829 64829 51841 51841 18221 64829 51841 64829 39856 39856 51841 18221 64829 64829 51841 39856 64829 64829 51841 18221 64829 18221 51841 64829 64829 64829 51841 18221 64829 64829 64829 64829 
18221 51841 64829 64829 51841 18221 51841 18221 18221 18221 39856 64829 64829 51841 18221 18221 18221 51841 64829 51841 18221 18221 18221 39856 51841 18221 39856 18221 18221 18221 51841 51841 18221 64829 64829 51841 18221 64829 64829 51841 18221 64829 51841 18221 18221 18221 51841 39856 18221 18221 18221 18221 64829 
