P2
7 52
65535
64795 64795 64795 64795 51841 39856 18221 
64795 64795 39856 18221 18221 39856 51841 
18221 18221 39856 64795 18221 64795 64795 
18221 18221 39856 51841 18221 64795 64795 
64795 64795 39856 18221 18221 39856 51841 
64795 64795 64795 64795 51841 39856 18221 
51841 51841 51841 39856 51841 51841 51841 
18221 18221 18221 18221 18221 18221 18221 
18221 64795 64795 18221 64795 64795 18221 
18221 64795 51841 18221 64795 51841 18221 
39856 18221 18221 18221 18221 18221 39856 
64795 51841 64795 64795 51841 51841 64795 
64795 51841 39856 39856 39856 64795 64795 
51841 18221 18221 39856 18221 18221 51841 
18221 51841 64795 64795 64795 51841 18221 
18221 64795 64795 64795 64795 51841 18221 
18221 51841 64795 64795 64795 51841 18221 
51841 18221 18221 39856 18221 18221 51841 
64795 64795 39856 39856 39856 64795 64795 
39856 51841 51841 51841 51841 51841 51841 
18221 18221 18221 18221 18221 18221 18221 
64795 64795 64795 64795 64795 64795 18221 
64795 64795 64795 64795 64795 64795 18221 
64795 64795 64795 64795 64795 51841 39856 
51841 51841 51841 51841 51841 51841 51841 
18221 18221 39856 18221 18221 18221 18221 
64795 18221 39856 64795 64795 64795 39856 
18221 39856 18221 39856 64795 51841 18221 
18221 64795 51841 18221 51841 64795 18221 
18221 51841 64795 39856 18221 39856 18221 
51841 64795 64795 64795 39856 39856 51841 
51841 51841 51841 51841 51841 51841 51841 
18221 18221 18221 18221 18221 18221 18221 
64795 64795 51841 18221 64795 64795 64795 
64795 64795 64795 18221 64795 64795 64795 
39856 51841 39856 18221 39856 51841 51841 
18221 18221 39856 18221 18221 39856 18221 
64795 64795 64795 64795 64795 64795 64795 
64795 64795 64795 64795 64795 64795 64795 
51841 51841 51841 51841 51841 51841 51841 
18221 18221 18221 18221 18221 18221 18221 
64795 64795 39856 39856 51841 64795 64795 
51841 18221 18221 39856 18221 18221 51841 
18221 51841 64795 64795 64795 51841 18221 
18221 64795 64795 64795 64795 64795 18221 
18221 64795 64795 64795 64795 64795 18221 
51841 64795 64795 64795 64795 64795 51841 
51841 51841 51841 51841 51841 51841 39856 
18221 18221 18221 18221 18221 18221 18221 
18221 51841 51841 18221 64795 64795 18221 
18221 64795 64795 18221 64795 64795 18221 
39856 64795 64795 51841 64795 64795 18221 
