P2
53 7
255
252 252 92 92 252 252 201 45 45 45 155 252 252 201 92 45 45 201 252 201 92 252 252 252 201 92 252 45 45 45 252 201 92 252 252 201 92 252 252 201 92 252 201 45 45 45 201 201 45 45 45 155 252 
252 252 45 45 252 252 201 92 252 252 45 252 252 45 201 252 201 45 252 201 92 252 252 252 201 92 92 155 252 252 252 201 92 252 252 155 92 252 252 201 92 252 45 201 252 252 252 201 92 252 252 252 252 
252 155 155 155 155 252 201 92 252 252 45 252 155 92 252 252 252 92 155 201 92 252 252 252 201 92 155 92 252 252 252 201 92 252 252 201 92 252 252 201 92 155 92 252 252 252 252 201 92 252 252 252 252 
252 92 252 201 45 252 201 45 45 45 92 252 155 92 252 252 252 155 155 201 92 252 252 252 201 92 252 92 45 92 252 201 45 45 45 45 92 252 252 201 92 155 155 252 252 252 252 201 45 45 45 201 252 
201 45 92 45 45 252 201 92 252 252 45 201 201 92 252 252 252 92 155 201 92 252 252 252 201 92 252 252 252 92 155 201 92 252 252 155 92 252 252 201 92 155 92 252 252 252 252 201 92 252 252 252 252 
155 155 252 252 92 155 201 92 252 252 92 201 252 45 201 252 201 45 252 201 92 252 252 252 201 92 252 252 252 92 155 201 92 252 252 201 92 252 252 201 92 252 45 201 252 252 252 201 92 252 252 252 252 
45 252 252 252 201 45 201 45 92 45 92 252 252 201 45 45 45 201 252 201 45 45 45 155 201 92 155 45 45 92 201 201 92 252 252 201 92 252 252 201 92 252 201 45 45 45 201 201 45 45 45 92 252 
